<?xml version="1.0" encoding="utf-8"?>
<!-- Generator: Adobe Illustrator 21.1.0, SVG Export Plug-In . SVG Version: 6.00 Build 0)  -->
<!DOCTYPE svg PUBLIC "-//W3C//DTD SVG 1.1//EN" "http://www.w3.org/Graphics/SVG/1.1/DTD/svg11.dtd">
<svg version="1.1" id="圖層_1" xmlns="http://www.w3.org/2000/svg" xmlns:xlink="http://www.w3.org/1999/xlink" x="0px" y="0px"
	 viewBox="0 0 511 136" style="enable-background:new 0 0 511 136;" xml:space="preserve">
<style type="text/css">
	.st0{enable-background:new    ;}
</style>
<title>top</title>
<g class="st0">
	<path d="M172.9,82.2c2.4-1.1,4.6-2.2,6.8-3.5c2.2-1.3,4.4-2.7,6.6-4.2c1.1-2.1,2.2-4.2,3.5-6.2c1.3-2,2.5-3.9,3.8-5.8
		c1.3-1.8,2.6-3.5,3.9-5.3c1.3-1.8,2.6-3.6,4-5.3c1.1-1.5,2.4-3.1,3.7-4.6c1.3-1.6,2.9-2.8,4.6-3.8c0.8-0.5,1.9-0.8,3.1-1
		c1.2-0.2,2.1,0.4,2.5,1.7c0.3,0.8,0.3,1.7,0.1,2.5c-0.3,0.8-0.7,1.6-1.2,2.4c-0.5,0.8-1.1,1.6-1.7,2.3c-0.6,0.7-1.1,1.4-1.5,1.9
		c-3,4.3-6.4,8.4-10.2,12.2c-3.8,3.8-7.8,7.2-12.2,10.4c-0.4,0.9-0.8,1.9-1.3,2.9c-0.5,1-0.9,2.1-1.3,3.3c-0.4,1.1-0.6,2.3-0.8,3.4
		c-0.2,1.1-0.1,2.2,0.1,3.1c0.8-0.2,1.6-0.3,2.3-0.3c0.6-0.1,1.2-0.1,1.7-0.2c0.5,0,0.9-0.1,1-0.2c2.3-0.5,4.5-1.1,6.7-1.8
		c2.2-0.8,4.4-1.6,6.5-2.5c0.6-0.2,1.3-0.5,2.2-0.9c0.8-0.5,1.6-0.5,2.2-0.1c0.8,0.6,1,1.2,0.3,1.7c-0.6,0.5-1.2,0.9-1.7,1.1
		l-13.2,4.9c-1.3,0.5-2.5,0.9-3.8,1.4c-1.2,0.5-2.5,0.8-3.8,0.9c-1.1,0.2-2.1,0-2.7-0.5c-0.7-0.5-1.2-1.1-1.4-1.9
		c-0.3-0.8-0.4-1.7-0.3-2.6c0.1-1,0.2-1.8,0.5-2.7c0.5-1.8,1.2-3.7,2.1-5.5c-3.1,2.1-6.4,3.9-9.8,5.6c-0.8,0.2-1.4-0.1-1.9-0.7
		C171.7,83.2,171.9,82.6,172.9,82.2z M196,66.5c3.6-3.3,6.8-7,9.8-10.8c1.4-1.6,2.7-3.4,3.9-5.5c0.2-0.4,0.4-0.9,0.7-1.4
		c0.3-0.6,0.6-1.2,0.8-1.8c-1.1,0.5-2.1,1.3-3,2.2c-1,0.9-1.7,1.7-2.3,2.3c-1.8,1.8-3.4,3.6-4.9,5.5c-1.5,1.9-3,3.9-4.6,6
		c-0.8,1.2-1.6,2.4-2.4,3.6c-0.8,1.2-1.5,2.4-2.2,3.6c0.7-0.5,1.4-1.1,2.1-1.8C194.6,67.8,195.3,67.1,196,66.5z"/>
	<path d="M217.8,76.7c0.3-0.2,1-0.5,2.1-0.9c1.1-0.5,2.2-0.8,3.3-1c1.1-0.2,2-0.2,2.7-0.1c0.8,0.2,1,0.9,0.8,2.1
		c-0.2,0.7-0.5,1.4-1,2.1c-0.5,0.7-0.9,1.4-1.1,2.1c-0.5,1-0.9,2.2-1.3,3.7c-0.4,1.4-0.3,2.6,0.4,3.5c1.3,0.2,2.7,0,4.3-0.5
		c1.6-0.5,3-0.9,4.3-1.4c0.4-0.2,1.1-0.5,2.2-1.1c1.1-0.6,2.2-1.2,3.4-1.8c1.2-0.6,2.3-1,3.3-1.3c1-0.3,1.6-0.2,1.8,0.3
		c0.3,0.5,0.1,1.1-0.6,1.7c-0.7,0.6-1.5,1.2-2.6,1.7c-1,0.5-2.1,1-3.1,1.4c-1.1,0.4-1.8,0.7-2.1,0.9c-1.7,0.8-3.4,1.7-5.1,2.5
		s-3.5,1.4-5.3,1.7c-1.6,0.2-2.7-0.1-3.3-1c-0.6-0.9-0.9-2.1-0.9-3.5c0-1.4,0.2-2.9,0.6-4.6c0.4-1.6,0.9-3.1,1.3-4.5
		c-1.8,0.7-3.5,1.3-5.1,1.9c-1.7,0.6-3.3,1.2-4.9,2c-1.4,0.6-2.7,1.3-4.1,2.1c-0.8,0.2-1.5,0-2-0.6c-0.5-0.6-0.3-1.2,0.6-1.7
		L217.8,76.7z M231.2,53.6c0.4-1,1-1.8,1.8-2.6c0.8-0.7,1.7-1.3,2.7-1.8c1-0.5,2-0.8,3.1-1.1c1.1-0.3,2.1-0.5,3.1-0.6
		c2.7-0.2,5.4,0,8.1,0.3c0.5,0,1,0.1,1.5,0.2c0.6,0.2,0.8,0.6,0.7,1.3c-0.1,0.4-0.3,0.7-0.6,1c-0.3,0.3-0.6,0.4-1,0.3
		c-2.2-0.5-4.5-0.6-6.9-0.5c-2.4,0.1-4.5,0.8-6.4,2.1c-0.8,0.5-1.3,1.1-1.6,1.8c-0.3,0.8-0.8,1.4-1.4,1.8c-0.8,0.6-1.6,0.6-2.4,0
		C231.1,55.3,230.9,54.5,231.2,53.6z"/>
	<path d="M240.9,82.3c0.8-0.5,2.3-1.2,4.3-2.3c2.1-1.1,4.2-2.1,6.3-3.1c2.2-1,4.2-1.7,6-2.1c1.8-0.4,3-0.1,3.4,0.9
		c0.3,0.8,0.2,1.5-0.3,2.2c-0.5,0.7-0.9,1.4-1.1,2l-1.4,3.2c1-0.6,2-1.1,3-1.6c1-0.5,2-0.9,3-1.4c2.4-1.3,4.9-2.7,7.5-4.1
		c2.6-1.4,5.2-2.5,7.9-3.3c1-0.2,1.9-0.2,2.6-0.1c0.8,0.2,1.3,0.5,1.8,1c0.4,0.5,0.6,1.1,0.6,1.9s-0.3,1.7-0.9,2.6
		c-0.7,1.1-1.4,2-2.2,2.9c-0.8,0.8-1.6,1.8-2.5,2.7c-0.2,0.2-0.4,0.5-0.8,0.9c-0.4,0.4-0.8,0.8-1.2,1.3c-0.4,0.5-0.8,1-1.1,1.5
		c-0.3,0.5-0.6,0.9-0.6,1.3c0.5,0.2,1.2,0.2,2,0c0.8-0.2,1.6-0.4,2.4-0.6c0.8-0.3,1.6-0.6,2.3-0.9c0.7-0.3,1.3-0.5,1.7-0.7l4.7-2.1
		c0.3-0.2,0.7-0.4,1.2-0.7c0.5-0.3,1-0.6,1.5-0.9c0.5-0.3,1-0.5,1.5-0.7c0.5-0.2,0.9-0.3,1.2-0.3c0.7,0,1,0.3,1,1s-0.3,1.2-0.9,1.6
		c-0.7,0.4-1.4,0.7-2.2,1.1c-0.8,0.3-1.6,0.7-2.4,1.1c-1.1,0.6-2.1,1.1-3.1,1.6c-1,0.5-2,1-3.1,1.5c-0.6,0.3-1.6,0.7-2.9,1.3
		c-1.3,0.6-2.7,1-4,1.3c-1.3,0.3-2.5,0.2-3.5-0.1c-1-0.3-1.5-1.3-1.5-2.8c0-0.8,0.2-1.4,0.6-2.1c0.4-0.6,0.8-1.2,1.3-1.8
		c0.5-0.6,1-1.1,1.6-1.7c0.6-0.5,1.1-1,1.5-1.5c0.5-0.4,1.2-1.2,2.3-2.4c1.1-1.2,1.8-2.4,2.1-3.4c-2.1,0.2-4.1,0.8-6.2,1.6
		c-2.1,0.8-4,1.7-5.8,2.6c-2.2,1.1-4.5,2.3-6.8,3.6c-2.4,1.3-4.4,2.9-6.2,4.7c-0.4,0.3-0.8,0.5-1.2,0.5c-0.4,0-0.8,0-1.2-0.2
		c-0.4-0.2-0.7-0.5-0.9-0.9c-0.2-0.4-0.2-0.9-0.1-1.5c0.2-0.7,0.8-1.3,1.7-1.8c0.4-0.6,0.8-1.3,1.1-2.1c0.4-0.8,0.6-1.3,0.8-1.4
		c0.2-0.5,0.3-1.1,0.5-1.7c0.2-0.6,0.3-1.2,0.3-1.8c-0.8,0.2-1.7,0.5-2.5,0.8c-0.8,0.3-1.5,0.5-1.9,0.7c-1.1,0.5-2.1,0.9-3.2,1.3
		c-1.1,0.4-2.1,0.9-3.2,1.4c-0.6,0.3-1.2,0.6-1.7,0.9c-0.5,0.3-1,0.6-1.7,0.8c-0.5,0.2-0.9,0.3-1.3,0.2c-0.4-0.1-0.7-0.3-1-0.5
		s-0.3-0.5-0.3-0.9C240.1,82.8,240.3,82.5,240.9,82.3z"/>
	<path d="M292.9,82.3c2-1,3.9-1.9,5.8-2.9c1.9-0.9,3.8-1.8,5.8-2.5c2.1-0.8,4.2-1.3,6.3-1.7c2.1-0.4,4.3-0.6,6.6-0.6
		c0.8,0,1.5,0.2,1.9,0.6c0.5,0.4,0.5,1.1,0.1,2.1c-0.5,0.8-1.1,1.1-2.1,1.1c-2-0.2-4-0.2-6,0c-2,0.2-3.9,0.6-5.8,1.4
		c-0.6,0.2-1.3,0.6-1.9,1c-0.7,0.5-1.3,1-1.9,1.5c-0.6,0.6-1,1.2-1.2,1.9c-0.2,0.7-0.2,1.4,0.2,2.2c0.6,1.3,1.8,2.1,3.5,2.3
		s3.2,0.2,4.4-0.1c1-0.2,1.9-0.5,2.6-0.9c0.8-0.4,1.4-0.7,2.1-1c0.6-0.3,1.2-0.5,1.7-0.6c0.5-0.1,1,0.1,1.5,0.5
		c0.5,0.8,0.6,1.6,0.1,2.6c-0.5,1-0.9,1.8-1.2,2.5l-1.6,3.8c2.1-2.1,4.2-4.2,6.5-6.1c2.3-1.9,4.7-3.7,7.3-5.2
		c0.2-0.2,0.5-0.4,0.9-0.7c0.4-0.3,0.8-0.6,1.3-0.9c0.5-0.3,0.9-0.5,1.4-0.6c0.5-0.1,0.8-0.1,1.1,0.2c0.5,0.4,0.7,0.8,0.6,1.1
		c-0.2,0.4-0.4,0.8-0.8,1.1c-2,1.1-3.9,2.2-5.7,3.4c-1.8,1.2-3.6,2.6-5.4,4.1c-2,1.7-3.9,3.5-5.6,5.4c-1.8,1.9-3.4,3.9-5,5.9l-3,6.8
		c-0.9,2.3-1.8,4.6-2.7,7c-0.9,2.4-1.9,4.7-3,7c-0.2,0.5-0.5,1-0.9,1.7c-0.3,0.6-0.7,1.3-1.1,1.8c-0.4,0.6-0.9,1-1.5,1.4
		c-0.6,0.3-1.2,0.5-1.9,0.4c-0.9-0.2-1.5-0.6-1.8-1.3c-0.3-0.7-0.3-1.4-0.2-2.3c0.1-0.8,0.3-1.7,0.6-2.5c0.3-0.8,0.5-1.5,0.7-2.1
		c1.4-3.4,3.3-6.8,5.4-10c2.2-3.2,4.5-6.3,6.9-9.2l3.9-11.1c-1.4,0.4-2.8,0.7-4.4,0.9c-1.6,0.2-3,0.2-4.4,0.1s-2.6-0.5-3.7-1.1
		c-1.1-0.6-1.9-1.6-2.5-3c-0.7-1.7-0.6-3.3,0.1-4.8c-0.6,0.4-1.2,0.8-1.9,1.2c-0.6,0.4-1.2,0.6-1.7,0.4c-0.8,0-1.2-0.3-1.4-1
		C292.1,83.1,292.3,82.6,292.9,82.3z"/>
	<path d="M364.2,82.2c2-0.8,3.9-1.8,5.8-2.8c1.9-1,3.8-2,5.8-3c0.5-0.2,1.1-0.5,2-0.9c0.9-0.4,1.7-0.6,2.5-0.7s1.4,0,1.8,0.3
		c0.4,0.3,0.5,1.1,0.2,2.3c-0.2,0.9-0.7,1.9-1.3,2.9c-0.6,1-1.2,2-1.7,3l-2.9,5.8c-0.3,0.5-0.6,0.9-0.8,1.4
		c-0.2,0.5-0.5,0.9-0.7,1.4c2.3-2.6,4.6-5.1,7.1-7.5c2.4-2.4,5-4.7,7.8-6.7c1.6-1.2,3.4-2.4,5.5-3.5c2.1-1.1,4.1-1.5,6.2-1.2
		c1.2,0.2,2,0.7,2.2,1.5c0.3,0.8,0.3,1.6,0,2.5s-0.7,1.8-1.2,2.7c-0.5,0.9-1,1.6-1.4,2.2l-4.8,6c1.7-0.4,3.3-0.8,4.9-1.4
		c1.6-0.5,3.2-1.1,4.9-1.8c0.3-0.2,0.8-0.4,1.5-0.9c0.7-0.4,1.5-0.8,2.2-1.1c0.8-0.3,1.4-0.5,2-0.5c0.6,0,0.9,0.4,0.9,1.2
		c0,0.5-0.3,1-1,1.5c-0.6,0.5-1.4,0.9-2.2,1.3c-0.8,0.4-1.7,0.7-2.5,1c-0.8,0.3-1.4,0.5-1.8,0.7c-0.5,0.2-1.6,0.6-3.4,1.3
		c-1.8,0.6-3.7,1.3-5.8,1.9c-2.1,0.7-4.1,1.3-5.9,1.9c-1.9,0.6-3.1,0.9-3.7,1c-0.5,0-0.9-0.2-1.2-0.6c-0.3-0.4-0.4-0.9-0.3-1.4
		c0-0.5,0.3-1,0.7-1.5c0.5-0.5,1.1-0.8,2.1-0.9c1.3,0,2.4-0.4,3.4-1.1c1-0.7,1.9-1.5,2.9-2.5c1.6-1.5,2.9-3.2,4-5
		c0.2-0.4,0.6-1,1-1.8c0.5-0.8,0.8-1.5,0.9-2.2c-1.2,0.1-2.4,0.4-3.6,0.9c-1.2,0.5-2.3,1.2-3.5,1.9c-1.1,0.7-2.2,1.5-3.3,2.3
		c-1,0.8-2,1.6-2.8,2.3c-2.4,1.9-4.7,4-6.9,6.2s-4.2,4.5-6.2,6.8l-3.2,3.7l-7.6,15.9c-0.5,0.8-1,2-1.7,3.5c-0.7,1.5-1.5,3-2.3,4.5
		c-0.9,1.4-1.8,2.6-2.9,3.6c-1,1-2.1,1.3-3.4,1.1c-0.9-0.2-1.5-0.7-1.8-1.3c-0.3-0.6-0.3-1.4-0.1-2.3c0.2-0.9,0.5-1.8,1-2.7
		c0.5-1,1-1.9,1.5-2.8c0.5-0.9,1-1.7,1.5-2.4c0.5-0.7,0.8-1.2,1-1.5c2-3,4.1-5.9,6.3-8.7c2.2-2.9,4.4-5.6,6.6-8.4
		c1.7-3.4,3.2-6.8,4.7-10.2c1.4-3.3,2.9-6.7,4.2-10.2c-1.4,0.4-2.9,1-4.3,1.7c-1.4,0.8-2.7,1.4-3.9,1.9c-0.6,0.3-1.3,0.8-2.1,1.4
		c-0.8,0.6-1.6,0.8-2.3,0.7c-0.7,0-1.1-0.4-1.3-1.1C363.3,82.9,363.5,82.4,364.2,82.2z"/>
	<path d="M410.8,82.3c0.9-0.5,2.1-1,3.5-1.8c1.4-0.7,2.9-1.4,4.5-2.1s3.1-1.3,4.6-1.9c1.5-0.6,2.7-1.1,3.7-1.5
		c0.5-0.2,1.5-0.6,2.9-1c1.4-0.5,2.8-0.9,4.3-1.3c1.5-0.4,2.9-0.6,4.3-0.8c1.3-0.2,2.3,0,2.9,0.3c0.9,0.8,1.1,1.6,0.5,2.3
		c-0.6,0.7-1.3,1.1-2.1,1.3l-5.1,0.6c-1.1,0.3-2,0.7-2.7,1.1c-0.7,0.4-1.5,0.9-2.5,1.5c-0.4,0.3-1,0.9-2,1.9c-1,1-1.9,2-2.8,3.1
		c-0.9,1.1-1.6,2.2-2.2,3.2c-0.5,1-0.5,1.8,0,2.2c0.5,0.4,1.2,0.5,2.2,0.2s2.1-0.6,3.1-1c1.1-0.5,2.1-0.9,3-1.4
		c0.9-0.5,1.5-0.9,1.8-1.1c2.2-1.4,4-2.8,5.4-4.3c0.7-0.8,1.4-0.9,2.2-0.3c0.8,0.6,1,1.4,0.7,2.3c-0.2,0.5-0.4,1-0.8,1.4
		c-0.4,0.4-0.7,0.7-1.1,1.1c-0.3,0.3-0.6,0.8-0.9,1.4c-0.3,0.5-0.4,0.9-0.2,1.2c0.2,0.3,0.4,0.4,0.8,0.5c1.1,0.2,2.4,0.1,4-0.2
		c1.6-0.3,3.3-0.7,5-1.3c1.7-0.5,3.4-1.2,5.1-1.9c1.7-0.7,3.1-1.4,4.3-2c0.3-0.1,0.7-0.3,1.3-0.6c0.5-0.3,1.1-0.6,1.7-0.9
		c0.6-0.2,1.1-0.3,1.7-0.3c0.5,0,0.9,0.2,1.1,0.7c0.3,0.5,0.3,0.9-0.1,1.3c-0.3,0.4-0.8,0.7-1.4,1c-0.6,0.3-1.2,0.5-1.8,0.7
		c-0.6,0.2-1.1,0.4-1.4,0.6c-1.3,0.6-2.6,1.2-3.9,1.8c-1.3,0.6-2.6,1.2-4,1.8c-0.9,0.4-1.9,0.8-3,1.4c-1.1,0.5-2.2,1-3.3,1.4
		c-1.1,0.4-2.3,0.6-3.5,0.8c-1.2,0.2-2.3,0-3.3-0.3c-1.3-0.5-2.1-1.3-2.3-2.2c-0.2-1-0.2-2,0.1-3l-3.1,1.8c-1.3,0.8-2.6,1.5-4.1,2.3
		c-1.4,0.8-2.9,1.3-4.4,1.4c-1.4,0.1-2.6-0.2-3.7-0.9c-1.1-0.7-1.6-1.7-1.7-3.2c0-0.8,0.3-1.7,0.9-2.9c0.6-1.2,1.4-2.4,2.3-3.7
		c1-1.3,2-2.4,3.1-3.5c1.1-1.1,2.2-1.9,3.2-2.4c-0.5,0.2-1.4,0.5-2.6,1c-1.2,0.5-2.5,1.2-4,1.9c-1.5,0.8-3,1.5-4.7,2.3
		c-1.6,0.8-3.1,1.5-4.5,2.2c-0.4,0.2-0.8,0.3-1.1,0.2c-0.4-0.1-0.7-0.3-0.9-0.6c-0.2-0.3-0.3-0.6-0.2-0.9
		C410.1,82.8,410.3,82.5,410.8,82.3z"/>
	<path d="M473,77c1.5-0.6,3.1-1.1,4.7-1.6c1.6-0.5,3.2-0.9,4.7-1.4c1-0.5,2.1-1,3.3-1.3c1.2-0.3,2.3-0.2,3.3,0.5
		c0.6,0.5,0.8,1.1,0.7,1.8c0.5-0.1,1.1,0.1,1.6,0.5c1,1,1.3,2.2,1,3.5c-0.3,1.4-0.9,2.7-1.7,4c0.3,0.4,0.8,0.8,1.4,1.1
		c1.2,0.8,2.5,1.1,4,1c1.4-0.1,2.8-0.3,4.1-0.7c0.4-0.1,1-0.3,1.7-0.7c0.8-0.4,1.5-0.7,2.3-1.1c0.8-0.3,1.5-0.6,2.2-0.7
		s1.1,0.1,1.4,0.5c0.3,0.6,0.3,1.1-0.1,1.5c-0.4,0.4-0.9,0.8-1.5,1c-0.6,0.3-1.3,0.5-2,0.7c-0.7,0.2-1.1,0.4-1.4,0.5
		c-1.1,0.4-2.3,0.7-3.6,0.9c-1.3,0.2-2.5,0.3-3.7,0.3c-1.2,0-2.4-0.2-3.5-0.5c-1.1-0.3-2.1-0.9-3-1.8l-2.5,2.6
		c-0.9,0.8-1.9,1.7-3.1,2.5c-1.1,0.8-2.3,1.5-3.6,2.1c-1.3,0.6-2.6,0.9-3.9,1.1c-1.4,0.2-2.7,0-3.9-0.6c-1.5-0.7-2.4-1.6-2.7-2.7
		c-0.3-1.1-0.2-2.3,0.3-3.5c0.5-1.2,1.1-2.4,1.9-3.5c0.8-1.1,1.6-2.1,2.4-2.9l2.2-2.2c-1.8,0.6-3.5,1.3-5.1,2.1
		c-1.7,0.8-3.3,1.6-5,2.4c-0.3,0.2-0.7,0.4-1.1,0.6c-0.5,0.3-0.9,0.5-1.4,0.7c-0.5,0.2-0.9,0.4-1.3,0.5c-0.4,0.1-0.8,0.1-1.1-0.2
		c-0.5-0.3-0.8-0.7-0.7-1.3c0.1-0.5,0.3-0.9,0.8-1.1L473,77z M476.9,81c-0.3,0.3-0.9,0.9-1.7,1.7c-0.8,0.8-1.5,1.7-2.1,2.6
		c-0.6,0.9-1,1.8-1.1,2.6c-0.1,0.8,0.4,1.3,1.4,1.4c2,0.3,3.9,0.2,5.6-0.2c1.8-0.5,3.4-1.3,4.8-2.6c0.6-0.6,1.2-1.2,1.7-1.7
		c0.5-0.5,1-1.1,1.4-1.8c-0.4-1-0.6-2.1-0.6-3.2c0-1.1,0.2-2.1,0.9-3c-2.1,0.2-4.1,0.6-5.8,1.4C479.8,78.9,478.2,79.9,476.9,81z"/>
</g>
<image style="overflow:visible;enable-background:new    ;" width="273" height="250" xlink:href="1AFD26E32EB06E05.png"  transform="matrix(0.4882 0 0 0.4861 0 1)">
</image>
</svg>
